# xmcd
#
# Track frame offsets: 
#        150
#        42522
#        66040
#        122880
#        213112
#        248787
#
# Disc length: 3592 seconds
#
# Revision: 1
# Processed by: cddbd v1.5.2PL0 Copyright (c) Steve Scherf et al.
# Submitted via: ExactAudioCopy v0.95b4
#
DISCID=520e0606
DTITLE=Ken Davis - Dolphin Magic
DYEAR=1996
DGENRE=Country
TTITLE0=Dolphins And Angels
TTITLE1=Dolphin Magic
TTITLE2=Into The Depths
TTITLE3=Dolphin Healing
TTITLE4=Dolphin Bliss
TTITLE5=Dolphin Spirit
EXTD=
EXTT0=
EXTT1=
EXTT2=
EXTT3=
EXTT4=
EXTT5=
PLAYORDER=
